<?xml version="1.0" encoding="UTF-8" standalone="no"?>
<!-- Uploaded to: SVG Repo, www.svgrepo.com, Generator: SVG Repo Mixer Tools -->

<svg
   width="667.90002"
   height="667.90002"
   viewBox="0 0 20.037001 20.037"
   version="1.1"
   id="svg2"
   sodipodi:docname="account-circle-svgrepo-com.svg"
   inkscape:version="1.3.2 (091e20e, 2023-11-25, custom)"
   xmlns:inkscape="http://www.inkscape.org/namespaces/inkscape"
   xmlns:sodipodi="http://sodipodi.sourceforge.net/DTD/sodipodi-0.dtd"
   xmlns="http://www.w3.org/2000/svg"
   xmlns:svg="http://www.w3.org/2000/svg">
  <defs
     id="defs2" />
  <sodipodi:namedview
     id="namedview2"
     pagecolor="#ffffff"
     bordercolor="#000000"
     borderopacity="0.25"
     inkscape:showpageshadow="2"
     inkscape:pageopacity="0.0"
     inkscape:pagecheckerboard="0"
     inkscape:deskcolor="#d1d1d1"
     inkscape:zoom="0.99125"
     inkscape:cx="400"
     inkscape:cy="400"
     inkscape:window-width="1920"
     inkscape:window-height="989"
     inkscape:window-x="-8"
     inkscape:window-y="-8"
     inkscape:window-maximized="1"
     inkscape:current-layer="svg2" />
  <g
     id="g2"
     transform="translate(-1.9672131,-1.9672131)">
    <path
       fill="none"
       d="M 0,0 H 24 V 24 H 0 Z"
       id="path1" />
    <path
       d="M 12,22 C 6.477,22 2,17.523 2,12 2,6.477 6.477,2 12,2 17.523,2 22,6.477 22,12 22,17.523 17.523,22 12,22 Z M 7.013,18.256 A 7.966,7.966 0 0 0 12,20 c 1.97,0 3.773,-0.712 5.167,-1.892 A 6.979,6.979 0 0 0 12.16,16 6.981,6.981 0 0 0 7.013,18.256 Z M 5.616,16.82 A 8.975,8.975 0 0 1 12.16,14 8.972,8.972 0 0 1 18.522,16.634 8,8 0 1 0 5.616,16.821 Z M 12,13 a 4,4 0 1 1 0,-8 4,4 0 0 1 0,8 z m 0,-2 a 2,2 0 1 0 0,-4 2,2 0 0 0 0,4 z"
       id="path2" />
  </g>
</svg>
