<?xml version="1.0" encoding="UTF-8" standalone="no"?>
<!-- Uploaded to: SVG Repo, www.svgrepo.com, Generator: SVG Repo Mixer Tools -->

<svg
   fill="#000000"
   version="1.1"
   id="Layer_1"
   width="800"
   height="630"
   viewBox="0 0 92 72.45"
   enable-background="new 0 0 92 92"
   xml:space="preserve"
   sodipodi:docname="cart-svgrepo-com (2) - Copy.svg"
   inkscape:version="1.3.2 (091e20e, 2023-11-25, custom)"
   xmlns:inkscape="http://www.inkscape.org/namespaces/inkscape"
   xmlns:sodipodi="http://sodipodi.sourceforge.net/DTD/sodipodi-0.dtd"
   xmlns="http://www.w3.org/2000/svg"
   xmlns:svg="http://www.w3.org/2000/svg"><defs
   id="defs1" /><sodipodi:namedview
   id="namedview1"
   pagecolor="#ffffff"
   bordercolor="#000000"
   borderopacity="0.25"
   inkscape:showpageshadow="2"
   inkscape:pageopacity="0.0"
   inkscape:pagecheckerboard="0"
   inkscape:deskcolor="#d1d1d1"
   inkscape:zoom="0.99125"
   inkscape:cx="371.75284"
   inkscape:cy="313.24086"
   inkscape:window-width="1920"
   inkscape:window-height="989"
   inkscape:window-x="-8"
   inkscape:window-y="-8"
   inkscape:window-maximized="1"
   inkscape:current-layer="Layer_1"
   showguides="true" />
<path
   id="XMLID_1732_"
   d="M 4.0000684,0.09459756 C 1.8000882,0.09459756 0,1.8946836 0,4.0946656 c 0,2.199982 1.8000882,3.999844 4.0000684,3.999844 H 13.099893 L 28.900039,50.394519 c 0.799991,2.199982 3.100028,3.699991 5.50001,3.699991 h 41.300049 c 2.499973,0 4.599834,-1.599871 5.399834,-3.999844 L 91.800098,16.3945 c 0.399991,-1.199991 0.199843,-2.599824 -0.600157,-3.599815 -0.699991,-0.999991 -1.900027,-1.700068 -3.200009,-1.700068 H 87.76207 c -0.201832,0.04043 -0.405387,0.07101 -0.610937,0.0849 -0.06797,0.0054 -0.135974,0.01184 -0.203946,0.01819 -0.175523,0.09021 -0.355098,0.172202 -0.534345,0.254707 -0.0028,0.002 -0.0055,0.0043 -0.0083,0.0063 -0.254176,0.202011 -0.378539,0.304336 -0.576572,0.464717 -0.04953,0.04011 -0.09444,0.07155 -0.141279,0.106689 -0.220356,0.258734 -0.447181,0.51132 -0.682139,0.756709 -0.156401,0.149864 -0.275495,0.347575 -0.415078,0.502451 -0.149523,0.246867 -0.278553,0.503786 -0.396436,0.767266 -0.09782,0.218263 -0.193525,0.434467 -0.267285,0.664394 -0.0011,0.0031 -0.002,0.0061 -0.0031,0.0092 -0.01483,0.04092 -0.02545,0.08287 -0.042,0.123086 -0.0021,-0.0028 8.67e-4,0.0011 -0.04694,0.155879 -0.07789,0.252122 -0.13437,0.357326 -0.19833,0.559053 -0.09493,0.276781 -0.05111,0.114728 -0.135215,0.433496 -0.03802,0.07779 0.0071,-0.0165 -0.05795,0.223262 -0.04163,0.153524 -0.08676,0.314443 -0.149365,0.461347 -0.0026,0.0061 0.0013,-0.01304 0.002,-0.01954 -0.116232,0.400323 -0.240219,0.800472 -0.412382,1.180772 -0.02803,0.05843 -0.04945,0.118786 -0.07794,0.176318 -0.03087,0.142296 -0.06778,0.287999 -0.111631,0.437539 -0.06211,0.211797 -0.12897,0.422058 -0.193164,0.633174 h 2.25e-4 l -0.01056,0.03347 c -0.0048,0.01573 -0.0097,0.03142 -0.01438,0.04717 -0.04178,0.140046 -0.0851,0.281568 -0.132969,0.421143 L 74.000029,46.094598 H 35.999941 L 19.700039,2.7946266 C 19.100048,1.1946356 17.60008,0.09459756 15.900098,0.09459756 Z M 83.880596,14.85323 c 4.93e-4,6.74e-4 0.0069,-0.02296 0.01123,-0.03684 -4.15e-4,0.0012 -10e-4,0.0024 -0.0013,0.0036 -0.0098,0.02946 -0.02452,0.07218 -0.01707,0.05458 0.0029,-0.0069 0.0043,-0.01438 0.0072,-0.02134 z M 36.399971,59.394617 c -1.699991,0 -3.400009,0.69998 -4.6,1.899971 -1.199991,1.199991 -1.899971,2.900009 -1.899971,4.6 0,1.699982 0.69998,3.400009 1.899971,4.6 1.199991,1.199991 2.900009,1.89997 4.6,1.89997 1.699982,0 3.400009,-0.699979 4.6,-1.89997 1.199991,-1.199991 1.89997,-2.900018 1.89997,-4.6 0,-1.699991 -0.699979,-3.400009 -1.89997,-4.6 -1.199991,-1.199991 -2.900018,-1.899971 -4.6,-1.899971 z m 35.89999,0 c -1.699982,0 -3.400009,0.69998 -4.6,1.899971 -1.199991,1.199991 -1.899971,2.900009 -1.899971,4.6 0,1.699982 0.69998,3.400009 1.899971,4.6 1.199991,1.199991 2.900018,1.89997 4.6,1.89997 1.699982,0 3.400009,-0.699979 4.6,-1.89997 1.199991,-1.199991 1.899971,-2.900018 1.899971,-4.6 0,-1.699991 -0.69998,-3.400009 -1.899971,-4.6 -1.199991,-1.199991 -2.900018,-1.899971 -4.6,-1.899971 z"
   style="fill:#ffffff" />
<ellipse
   style="fill:#ffffff;stroke-width:0.112012"
   id="path43"
   cx="87.881462"
   cy="15.430011"
   rx="4.002522"
   ry="4.2925596" /></svg>
